<?xml version="1.0" standalone="no"?><!DOCTYPE svg PUBLIC "-//W3C//DTD SVG 1.1//EN" "http://www.w3.org/Graphics/SVG/1.1/DTD/svg11.dtd"><svg t="1676475701938" class="icon" viewBox="0 0 1024 1024" version="1.1" xmlns="http://www.w3.org/2000/svg" p-id="9192" xmlns:xlink="http://www.w3.org/1999/xlink" width="200" height="200"><path d="M708.266667 34.133333h-102.4V17.066667a17.066667 17.066667 0 0 0-17.066667-17.066667h-153.6a17.066667 17.066667 0 0 0-17.066667 17.066667v17.066666h-324.266666v989.866667h836.266666V34.133333h-221.866666z m187.733333 624.401067l-17.066667 17.066667V85.333333h-153.6V68.266667h170.666667v590.267733zM615.867733 938.666667H179.2V119.466667h119.466667v51.2h426.666666V119.466667h119.466667v590.267733L615.867733 938.666667zM844.8 757.998933V938.666667H664.132267L844.8 757.998933zM571.733333 34.133333v51.2h-119.466666V34.133333h119.466666z m-153.6 34.133334v51.2h187.733334V68.266667h85.333333v68.266666h-358.4V68.266667h85.333333z m-290.133333 0h170.666667v17.066666h-153.6v887.466667h436.667733l-17.066667 17.066667H128V68.266667z m484.932267 921.6l17.066666-17.066667H878.933333V723.8656l17.066667-17.066667V989.866667H612.932267z" fill="#e6e6e6" p-id="9193"></path><path d="M281.6 307.2h153.6a17.066667 17.066667 0 1 0 0-34.133333h-153.6a17.066667 17.066667 0 1 0 0 34.133333zM281.6 443.733333h85.333333a17.066667 17.066667 0 1 0 0-34.133333h-85.333333a17.066667 17.066667 0 1 0 0 34.133333zM657.066667 409.6h-119.466667a17.066667 17.066667 0 1 0 0 34.133333h119.466667a17.066667 17.066667 0 1 0 0-34.133333zM440.149333 414.549333a16.827733 16.827733 0 0 0-4.949333 12.117334c0 4.608 1.860267 8.874667 4.949333 12.117333 3.2256 3.072 7.492267 4.949333 12.117334 4.949333 4.608 0 8.874667-1.723733 12.117333-4.949333 3.072-3.242667 4.949333-7.68 4.949333-12.117333 0-4.4544-1.877333-8.891733-4.949333-12.117334-6.485333-6.314667-17.749333-6.314667-24.234667 0zM754.517333 414.549333c-6.314667-6.314667-17.749333-6.314667-24.234666 0a16.827733 16.827733 0 0 0-4.949334 12.117334c0 4.608 1.860267 8.874667 4.949334 12.117333 3.2256 3.072 7.492267 4.949333 12.117333 4.949333 4.608 0 8.874667-1.877333 12.117333-4.949333 3.072-3.242667 4.949333-7.68 4.949334-12.117333 0-4.4544-1.877333-8.891733-4.949334-12.117334zM486.4 546.133333h-119.466667a17.066667 17.066667 0 1 0 0 34.133334h119.466667a17.066667 17.066667 0 1 0 0-34.133334zM281.6 580.266667c4.608 0 8.874667-1.877333 12.117333-4.949334 3.072-3.242667 4.949333-7.68 4.949334-12.117333 0-4.4544-1.877333-8.891733-4.949334-12.117333-6.314667-6.314667-17.92-6.314667-24.234666 0-3.089067 3.2256-4.949333 7.492267-4.949334 12.117333 0 4.608 1.860267 8.874667 4.949334 12.117333 3.2256 3.072 7.492267 4.949333 12.117333 4.949334zM335.274667 702.5664c-37.376 19.456-49.954133 56.6784-54.545067 95.266133l-21.1968-17.749333c-16.725333-14.011733-40.994133 10.001067-24.132267 24.149333l47.889067 40.123734c11.229867 9.403733 28.6208 3.464533 29.1328-12.066134 1.245867-36.9664 2.986667-80.930133 40.072533-100.232533 19.490133-10.154667 2.2528-39.6288-17.220266-29.4912zM448.768 770.645333c-23.637333 5.4784-50.5344 35.549867-67.1744 1.809067-9.710933-19.694933-39.168-2.423467-29.474133 17.220267 8.823467 17.902933 25.6 30.446933 45.550933 32.9728 10.1376 1.28 19.3024-0.1536 28.808533-3.857067 6.980267-2.7136 33.058133-22.3232 38.690134-12.2368 10.717867 19.182933 40.209067 1.979733 29.474133-17.220267-9.1648-16.418133-27.716267-22.903467-45.8752-18.688z" fill="#e6e6e6" p-id="9194"></path></svg>